A western centered on a woman trying to bring her outlaw lover home for his burial.

Genre:Drama | Western
Language:English  http://www.imdb.com/title/tt1268970/
Source:BluRay x264-aAF
Subtitles:Engleza where needed
 
http://www.starshare.ro/bitbucket/vlcsnap2010-10-07-12h59m45s198.jpg 
http://www.starshare.ro/bitbucket/vlcsnap2010-10-07-12h59m56s46.jpg 
http://www.starshare.ro/bitbucket/vlcsnap2010-10-07-13h00m04s140.jpg 
http://www.starshare.ro/bitbucket/vlcsnap2010-10-07-13h00m11s202.jpg
 
http://www.youtube.com/watch?v=6j-kXAz5DQ0&feature=player_embedded

General
Complete name :The.Last.Rites.of.Ransom.Pride.2009.BRRip.H264.Feel-Free
Format : MPEG-4
Format profile : Base Media
Codec ID : isom
File size : 1.26 GiB
Duration : 1h 22mn
Overall bit rate : 2 189 Kbps
Video #1
Codec ID : avc1
Codec ID/Info : Advanced Video Coding
Duration : 1h 22mn
Bit rate mode : Variable
Bit rate : 2 019 Kbps
Width : 720 pixels
Height : 384 pixels
Display aspect ratio : 1.875
Frame rate mode : Constant
Frame rate : 23.976 fps
Resolution : 24 bits
Colorimetry : 4:2:0
Scan type : Progressive
Bits/(Pixel*Frame) : 0.305
Stream size : 1.16 GiB (92%)
Audio #2
ID : 2
Format : AAC
Format/Info : Advanced Audio Codec
Format version : Version 4
Format profile : LC
Format settings, SBR : No
Codec ID : 40
Duration : 1h 22mn
Bit rate mode : Variable
Bit rate : 165 Kbps
Channel(s) : 2 channels
Channel positions : L R
Sampling rate : 48.0 KHz
Resolution : 16 bits
Stream size : 97.2 MiB (8%)